<svg xmlns="http://www.w3.org/2000/svg" version="1" width="341.333" height="228" viewBox="0 0 256.000000 171.000000"><g fill="#cfe3f6"><path d="M139.5 1.5c-12.2 2.7-22.4 7.5-33.4 15.7l-5.3 4-10.2-.1c-12.4-.2-22.4 1.7-31.2 6C47.5 33 37.9 45.2 34.9 58.3c-1.1 4.9-1.6 5.5-8.2 10.2-9.6 6.9-18 16.4-22.5 25.4-3.4 6.8-3.7 8.3-4 17.3-.3 7.8 0 11.2 1.7 16.6 4.7 15.3 16 28.4 30.5 35.3 16.4 7.8 10.7 7.4 98.6 7l78.5-.4 6.9-2.3c19.8-6.8 32.4-17.9 37.1-32.7 4.9-15.3 3-34.9-4.6-48.3-3.5-6.3-12.2-14.6-18.2-17.5-4.6-2.2-4.6-2.3-5.7-9.3-.7-3.9-2.5-11-4.1-15.8-6-18.4-14.8-29.3-29.3-36.3-5.1-2.5-12.5-5.1-16.8-5.9-9.3-1.9-26.9-1.9-35.3-.1zM186.1 41c6.4 1.2 7.8 2.5 10.3 9 2.6 6.5 6.1 10.7 11.7 13.8 5.1 2.8 7.2 6.3 5 8.5-.8.8-4.8 1.2-11.1 1.2-9.5 0-10 .1-12.8 2.8-1.6 1.6-3.8 4.3-4.8 6.2l-1.7 3.3 3.2 4.1c1.8 2.2 5.5 6.1 8.3 8.5 6.1 5.3 6 7.3-.5 13.9-7.4 7.5-8.7 8.3-9.7 6.7-1.7-2.6-1.1-4 2.5-5.7 4.1-2 4.1-2.5-1.5-12.8-4.4-8.2-6.6-9.2-10.8-4.7-1.5 1.6-4.8 5.1-7.3 7.8-5.1 5.5-15.9 11.3-25.7 13.8-8.2 2.2-22.1 2.1-25.9 0-4.6-2.7-9.1-1.2-16.3 5.2-6.1 5.4-6.4 5.6-10.7 4.9-2.4-.3-8.1-2.4-12.6-4.6-4.5-2.1-10.3-4.2-13-4.5-4.7-.7-4.8-.6-10.5 4.8-9.4 9-12.5 10.6-22.2 11.4l-8.4.7 1.5-2.3c.8-1.3 3.2-2.9 5.2-3.6 4.7-1.6 12.8-7.7 21.4-15.9 3.7-3.6 7.8-6.8 9.1-7.1 1.2-.4 4 .1 6.2 1 4.8 1.9 8.9 2 11.1.3 1.9-1.4 4.6-6.3 3-5.3-2.4 1.5-.9-3.5 2.1-7l3.2-3.6 9.5.7c11.6.8 28.3-.9 35.5-3.6 2.9-1 7.4-3.3 10.1-5 3.8-2.4 6.7-3.4 12.4-4 13.2-1.5 16.6-3.2 25.7-12.5 7.2-7.4 8.2-8.9 8.6-12.6.3-2.4.6-4.9.9-5.7.3-1.1-1.4-2-5.9-3.2-7.9-2.2-8.7-2.9-12.3-10.3l-2.9-6.1 2.7 3.4c6.1 7.4 8.2 9.6 8.6 9.1.3-.3-1.7-3.5-4.4-7.2s-4.9-7.1-4.9-7.5c.1-.5 2.9 2.2 6.3 5.9 5.6 6.1 6.7 6.8 11.8 7.8z"/><path d="M189 99.3c0 1.4 3.4 7.7 4.2 7.7 1.7 0 .7-3.8-1.7-6-1.4-1.3-2.5-2.1-2.5-1.7zM42.4 126.2l-1.9 2.3 2.3-1.9c2.1-1.8 2.7-2.6 1.9-2.6-.2 0-1.2 1-2.3 2.2z"/></g></svg>